<?xml version="1.0" encoding="UTF-8" standalone="no"?>
<!DOCTYPE svg PUBLIC "-//W3C//DTD SVG 1.1//EN"
 "http://www.w3.org/Graphics/SVG/1.1/DTD/svg11.dtd">
<!-- Generated by graphviz version 2.43.0 (0)
 -->
<!-- Title: VisionCastAI Pages: 1 -->
<svg width="2251pt" height="958pt"
 viewBox="0.00 0.00 2251.20 957.81" xmlns="http://www.w3.org/2000/svg" xmlns:xlink="http://www.w3.org/1999/xlink">
<g id="graph0" class="graph" transform="scale(1 1) rotate(0) translate(57.6 900.21)">
<title>VisionCastAI</title>
<polygon fill="white" stroke="transparent" points="-57.6,57.6 -57.6,-900.21 2193.6,-900.21 2193.6,57.6 -57.6,57.6"/>
<text text-anchor="start" x="807" y="-817.91" font-family="Helvetica,sans-Serif" font-weight="bold" font-size="24.00">VisionCast‑AI — Architecture complète</text>
<text text-anchor="start" x="891.5" y="-795.71" font-family="Helvetica,sans-Serif" font-size="13.00" fill="#555555">Système de production broadcast avec IA temps réel</text>
<text text-anchor="start" x="1066" y="-776.91" font-family="Helvetica,sans-Serif" font-size="14.00"> </text>
<g id="clust1" class="cluster">
<title>cluster_sdk</title>
<path fill="#eff6ff" stroke="#2563eb" d="M32,-8C32,-8 125,-8 125,-8 131,-8 137,-14 137,-20 137,-20 137,-451.36 137,-451.36 137,-457.36 131,-463.36 125,-463.36 125,-463.36 32,-463.36 32,-463.36 26,-463.36 20,-457.36 20,-451.36 20,-451.36 20,-20 20,-20 20,-14 26,-8 32,-8"/>
<text text-anchor="start" x="28" y="-450.76" font-family="Helvetica,sans-Serif" font-weight="bold" font-size="12.00" fill="#1e3a5f">SDK Broadcast</text>
</g>
<g id="clust2" class="cluster">
<title>cluster_visioncast</title>
<path fill="#f8fafc" stroke="#1e293b" stroke-width="2" d="M181,-237.86C181,-237.86 1677,-237.86 1677,-237.86 1683,-237.86 1689,-243.86 1689,-249.86 1689,-249.86 1689,-747.61 1689,-747.61 1689,-753.61 1683,-759.61 1677,-759.61 1677,-759.61 181,-759.61 181,-759.61 175,-759.61 169,-753.61 169,-747.61 169,-747.61 169,-249.86 169,-249.86 169,-243.86 175,-237.86 181,-237.86"/>
<text text-anchor="start" x="873" y="-744.61" font-family="Helvetica,sans-Serif" font-weight="bold" font-size="15.00">VisionCast‑AI</text>
</g>
<g id="clust3" class="cluster">
<title>cluster_python_ia</title>
<path fill="#fffbeb" stroke="#ca8a04" d="M1355,-376.36C1355,-376.36 1549,-376.36 1549,-376.36 1555,-376.36 1561,-382.36 1561,-388.36 1561,-388.36 1561,-702.61 1561,-702.61 1561,-708.61 1555,-714.61 1549,-714.61 1549,-714.61 1355,-714.61 1355,-714.61 1349,-714.61 1343,-708.61 1343,-702.61 1343,-702.61 1343,-388.36 1343,-388.36 1343,-382.36 1349,-376.36 1355,-376.36"/>
<text text-anchor="start" x="1392.5" y="-702.01" font-family="Helvetica,sans-Serif" font-weight="bold" font-size="12.00" fill="#713f12">Module Python IA</text>
</g>
<g id="clust4" class="cluster">
<title>cluster_zeromq</title>
<path fill="#eef2ff" stroke="#6366f1" d="M201,-503.36C201,-503.36 340,-503.36 340,-503.36 346,-503.36 352,-509.36 352,-515.36 352,-515.36 352,-702.61 352,-702.61 352,-708.61 346,-714.61 340,-714.61 340,-714.61 201,-714.61 201,-714.61 195,-714.61 189,-708.61 189,-702.61 189,-702.61 189,-515.36 189,-515.36 189,-509.36 195,-503.36 201,-503.36"/>
<text text-anchor="start" x="229.5" y="-702.01" font-family="Helvetica,sans-Serif" font-weight="bold" font-size="12.00" fill="#3730a3">ZeroMQ IPC</text>
</g>
<g id="clust5" class="cluster">
<title>cluster_engine</title>
<path fill="#eff6ff" stroke="#2563eb" d="M384,-257.86C384,-257.86 678,-257.86 678,-257.86 684,-257.86 690,-263.86 690,-269.86 690,-269.86 690,-576.36 690,-576.36 690,-582.36 684,-588.36 678,-588.36 678,-588.36 384,-588.36 384,-588.36 378,-588.36 372,-582.36 372,-576.36 372,-576.36 372,-269.86 372,-269.86 372,-263.86 378,-257.86 384,-257.86"/>
<text text-anchor="start" x="469.5" y="-575.76" font-family="Helvetica,sans-Serif" font-weight="bold" font-size="12.00" fill="#1e3a5f">Moteur vidéo C++</text>
</g>
<g id="clust6" class="cluster">
<title>cluster_qt</title>
<path fill="#f5f3ff" stroke="#7c3aed" d="M722,-503.36C722,-503.36 1311,-503.36 1311,-503.36 1317,-503.36 1323,-509.36 1323,-515.36 1323,-515.36 1323,-702.61 1323,-702.61 1323,-708.61 1317,-714.61 1311,-714.61 1311,-714.61 722,-714.61 722,-714.61 716,-714.61 710,-708.61 710,-702.61 710,-702.61 710,-515.36 710,-515.36 710,-509.36 716,-503.36 722,-503.36"/>
<text text-anchor="start" x="972.5" y="-702.01" font-family="Helvetica,sans-Serif" font-weight="bold" font-size="12.00" fill="#4c1d95">Régie Qt (UI)</text>
</g>
<g id="clust7" class="cluster">
<title>cluster_legend</title>
<path fill="#f1f5f9" stroke="#94a3b8" d="M1794,-14C1794,-14 1942,-14 1942,-14 1948,-14 1954,-20 1954,-26 1954,-26 1954,-699.61 1954,-699.61 1954,-705.61 1948,-711.61 1942,-711.61 1942,-711.61 1794,-711.61 1794,-711.61 1788,-711.61 1782,-705.61 1782,-699.61 1782,-699.61 1782,-26 1782,-26 1782,-20 1788,-14 1794,-14"/>
<text text-anchor="start" x="1836.5" y="-698.21" font-family="Helvetica,sans-Serif" font-weight="bold" font-size="13.00" fill="#334155">Légende</text>
</g>
<g id="clust8" class="cluster">
<title>cluster_workflow</title>
<path fill="#f1f5f9" stroke="#94a3b8" d="M1990,-15.5C1990,-15.5 2116,-15.5 2116,-15.5 2122,-15.5 2128,-21.5 2128,-27.5 2128,-27.5 2128,-698.11 2128,-698.11 2128,-704.11 2122,-710.11 2116,-710.11 2116,-710.11 1990,-710.11 1990,-710.11 1984,-710.11 1978,-704.11 1978,-698.11 1978,-698.11 1978,-27.5 1978,-27.5 1978,-21.5 1984,-15.5 1990,-15.5"/>
<text text-anchor="start" x="1986.5" y="-696.71" font-family="Helvetica,sans-Serif" font-weight="bold" font-size="13.00" fill="#334155">Workflow complet</text>
</g>
<!-- cameras -->
<g id="node1" class="node">
<title>cameras</title>
<path fill="#dbeafe" stroke="#2563eb" stroke-width="1.5" d="M99.5,-677.16C99.5,-679.07 79.11,-680.61 54,-680.61 28.89,-680.61 8.5,-679.07 8.5,-677.16 8.5,-677.16 8.5,-646.06 8.5,-646.06 8.5,-644.16 28.89,-642.61 54,-642.61 79.11,-642.61 99.5,-644.16 99.5,-646.06 99.5,-646.06 99.5,-677.16 99.5,-677.16"/>
<path fill="none" stroke="#2563eb" stroke-width="1.5" d="M99.5,-677.16C99.5,-675.25 79.11,-673.7 54,-673.7 28.89,-673.7 8.5,-675.25 8.5,-677.16"/>
<text text-anchor="start" x="26.5" y="-663.81" font-family="Helvetica,sans-Serif" font-weight="bold" font-size="11.00" fill="#1e3a5f">Caméras</text>
<text text-anchor="start" x="16.5" y="-654.41" font-family="Helvetica,sans-Serif" font-size="9.00" fill="#1e3a5f">SDI / HDMI / NDI</text>
</g>
<!-- regie_table -->
<g id="node2" class="node">
<title>regie_table</title>
<path fill="#dbeafe" stroke="#2563eb" stroke-width="1.5" d="M96,-553.36C96,-553.36 12,-553.36 12,-553.36 6,-553.36 0,-547.36 0,-541.36 0,-541.36 0,-529.36 0,-529.36 0,-523.36 6,-517.36 12,-517.36 12,-517.36 96,-517.36 96,-517.36 102,-517.36 108,-523.36 108,-529.36 108,-529.36 108,-541.36 108,-541.36 108,-547.36 102,-553.36 96,-553.36"/>
<text text-anchor="start" x="10.5" y="-537.56" font-family="Helvetica,sans-Serif" font-weight="bold" font-size="11.00" fill="#1e3a5f">Table de régie</text>
<text text-anchor="start" x="8" y="-528.16" font-family="Helvetica,sans-Serif" font-size="9.00" fill="#1e3a5f">Mélangeur physique</text>
</g>
<!-- cameras&#45;&gt;regie_table -->
<g id="edge1" class="edge">
<title>cameras&#45;&gt;regie_table</title>
<path fill="none" stroke="#2563eb" stroke-width="2.5" d="M54,-642.54C54,-622.44 54,-589.66 54,-565.83"/>
<polygon fill="#2563eb" stroke="#2563eb" stroke-width="2.5" points="58.2,-565.65 54,-553.65 49.8,-565.65 58.2,-565.65"/>
<text text-anchor="start" x="54" y="-599.16" font-family="Helvetica,sans-Serif" font-size="9.00" fill="#2563eb"> &#160;Flux vidéo brut &#160;</text>
</g>
<!-- decklink -->
<g id="node3" class="node">
<title>decklink</title>
<path fill="#93c5fd" stroke="#2563eb" stroke-width="1.5" d="M107.5,-426.36C107.5,-426.36 48.5,-426.36 48.5,-426.36 42.5,-426.36 36.5,-420.36 36.5,-414.36 36.5,-414.36 36.5,-402.36 36.5,-402.36 36.5,-396.36 42.5,-390.36 48.5,-390.36 48.5,-390.36 107.5,-390.36 107.5,-390.36 113.5,-390.36 119.5,-396.36 119.5,-402.36 119.5,-402.36 119.5,-414.36 119.5,-414.36 119.5,-420.36 113.5,-426.36 107.5,-426.36"/>
<text text-anchor="start" x="49.5" y="-410.56" font-family="Helvetica,sans-Serif" font-weight="bold" font-size="11.00" fill="#1e3a5f">DeckLink</text>
<text text-anchor="start" x="44.5" y="-401.16" font-family="Helvetica,sans-Serif" font-size="9.00" fill="#1e3a5f">Input / Output</text>
</g>
<!-- regie_table&#45;&gt;decklink -->
<g id="edge5" class="edge">
<title>regie_table&#45;&gt;decklink</title>
<path fill="none" stroke="#2563eb" stroke-width="2" d="M57.29,-517.24C59.51,-505.68 62.59,-489.62 65.7,-473.42"/>
<polygon fill="#2563eb" stroke="#2563eb" stroke-width="2" points="69.18,-473.84 67.63,-463.36 62.31,-472.52 69.18,-473.84"/>
<text text-anchor="start" x="66" y="-474.16" font-family="Helvetica,sans-Serif" font-size="9.00" fill="#2563eb"> &#160;Flux vidéo entrant &#160;</text>
</g>
<!-- aja -->
<g id="node4" class="node">
<title>aja</title>
<path fill="#93c5fd" stroke="#2563eb" stroke-width="1.5" d="M107.5,-307.86C107.5,-307.86 48.5,-307.86 48.5,-307.86 42.5,-307.86 36.5,-301.86 36.5,-295.86 36.5,-295.86 36.5,-283.86 36.5,-283.86 36.5,-277.86 42.5,-271.86 48.5,-271.86 48.5,-271.86 107.5,-271.86 107.5,-271.86 113.5,-271.86 119.5,-277.86 119.5,-283.86 119.5,-283.86 119.5,-295.86 119.5,-295.86 119.5,-301.86 113.5,-307.86 107.5,-307.86"/>
<text text-anchor="start" x="67.5" y="-292.06" font-family="Helvetica,sans-Serif" font-weight="bold" font-size="11.00" fill="#1e3a5f">AJA</text>
<text text-anchor="start" x="44.5" y="-282.66" font-family="Helvetica,sans-Serif" font-size="9.00" fill="#1e3a5f">Input / Output</text>
</g>
<!-- decklink&#45;&gt;aja -->
<!-- gpu_pipeline -->
<g id="node12" class="node">
<title>gpu_pipeline</title>
<path fill="#93c5fd" stroke="#2563eb" stroke-width="1.5" d="M637,-307.86C637,-307.86 545,-307.86 545,-307.86 539,-307.86 533,-301.86 533,-295.86 533,-295.86 533,-283.86 533,-283.86 533,-277.86 539,-271.86 545,-271.86 545,-271.86 637,-271.86 637,-271.86 643,-271.86 649,-277.86 649,-283.86 649,-283.86 649,-295.86 649,-295.86 649,-301.86 643,-307.86 637,-307.86"/>
<text text-anchor="start" x="551" y="-292.06" font-family="Helvetica,sans-Serif" font-weight="bold" font-size="11.00" fill="#1e3a5f">Pipeline GPU</text>
<text text-anchor="start" x="541" y="-282.66" font-family="Helvetica,sans-Serif" font-size="9.00" fill="#1e3a5f">OpenGL 3.3 / OpenCV</text>
</g>
<!-- decklink&#45;&gt;gpu_pipeline -->
<g id="edge23" class="edge">
<title>decklink&#45;&gt;gpu_pipeline</title>
<path fill="none" stroke="#2563eb" stroke-width="2" d="M137,-385.59C175.34,-372.09 226.63,-355.21 273,-343.86 301.57,-336.87 331.81,-330.52 361.83,-324.83"/>
<polygon fill="#2563eb" stroke="#2563eb" stroke-width="2" points="362.81,-328.21 372,-322.93 361.53,-321.33 362.81,-328.21"/>
<text text-anchor="start" x="273" y="-346.66" font-family="Helvetica,sans-Serif" font-size="9.00" fill="#2563eb"> &#160;Capture &#160;</text>
</g>
<!-- magewell -->
<g id="node5" class="node">
<title>magewell</title>
<path fill="#93c5fd" stroke="#2563eb" stroke-width="1.5" d="M104,-176.43C104,-176.43 52,-176.43 52,-176.43 46,-176.43 40,-170.43 40,-164.43 40,-164.43 40,-152.43 40,-152.43 40,-146.43 46,-140.43 52,-140.43 52,-140.43 104,-140.43 104,-140.43 110,-140.43 116,-146.43 116,-152.43 116,-152.43 116,-164.43 116,-164.43 116,-170.43 110,-176.43 104,-176.43"/>
<text text-anchor="start" x="48" y="-160.63" font-family="Helvetica,sans-Serif" font-weight="bold" font-size="11.00" fill="#1e3a5f">Magewell</text>
<text text-anchor="start" x="65.5" y="-151.23" font-family="Helvetica,sans-Serif" font-size="9.00" fill="#1e3a5f">Input</text>
</g>
<!-- aja&#45;&gt;magewell -->
<!-- ndi -->
<g id="node6" class="node">
<title>ndi</title>
<path fill="#93c5fd" stroke="#2563eb" stroke-width="1.5" d="M107.5,-60C107.5,-60 48.5,-60 48.5,-60 42.5,-60 36.5,-54 36.5,-48 36.5,-48 36.5,-36 36.5,-36 36.5,-30 42.5,-24 48.5,-24 48.5,-24 107.5,-24 107.5,-24 113.5,-24 119.5,-30 119.5,-36 119.5,-36 119.5,-48 119.5,-48 119.5,-54 113.5,-60 107.5,-60"/>
<text text-anchor="start" x="67" y="-44.2" font-family="Helvetica,sans-Serif" font-weight="bold" font-size="11.00" fill="#1e3a5f">NDI</text>
<text text-anchor="start" x="44.5" y="-34.8" font-family="Helvetica,sans-Serif" font-size="9.00" fill="#1e3a5f">Input / Output</text>
</g>
<!-- magewell&#45;&gt;ndi -->
<!-- detection -->
<g id="node7" class="node">
<title>detection</title>
<path fill="#fde68a" stroke="#ca8a04" stroke-width="1.5" d="M1510,-679.61C1510,-679.61 1418,-679.61 1418,-679.61 1412,-679.61 1406,-673.61 1406,-667.61 1406,-667.61 1406,-655.61 1406,-655.61 1406,-649.61 1412,-643.61 1418,-643.61 1418,-643.61 1510,-643.61 1510,-643.61 1516,-643.61 1522,-649.61 1522,-655.61 1522,-655.61 1522,-667.61 1522,-667.61 1522,-673.61 1516,-679.61 1510,-679.61"/>
<text text-anchor="start" x="1433.5" y="-663.81" font-family="Helvetica,sans-Serif" font-weight="bold" font-size="11.00" fill="#713f12">Détection</text>
<text text-anchor="start" x="1414" y="-654.41" font-family="Helvetica,sans-Serif" font-size="9.00" fill="#713f12">face_recognition / dlib</text>
</g>
<!-- reconnaissance -->
<g id="node8" class="node">
<title>reconnaissance</title>
<path fill="#fde68a" stroke="#ca8a04" stroke-width="1.5" d="M1476,-553.36C1476,-553.36 1382,-553.36 1382,-553.36 1376,-553.36 1370,-547.36 1370,-541.36 1370,-541.36 1370,-529.36 1370,-529.36 1370,-523.36 1376,-517.36 1382,-517.36 1382,-517.36 1476,-517.36 1476,-517.36 1482,-517.36 1488,-523.36 1488,-529.36 1488,-529.36 1488,-541.36 1488,-541.36 1488,-547.36 1482,-553.36 1476,-553.36"/>
<text text-anchor="start" x="1379" y="-537.56" font-family="Helvetica,sans-Serif" font-weight="bold" font-size="11.00" fill="#713f12">Reconnaissance</text>
<text text-anchor="start" x="1378" y="-528.16" font-family="Helvetica,sans-Serif" font-size="9.00" fill="#713f12">Encodage &amp; matching</text>
</g>
<!-- detection&#45;&gt;reconnaissance -->
<g id="edge6" class="edge">
<title>detection&#45;&gt;reconnaissance</title>
<path fill="none" stroke="#ca8a04" stroke-width="1.5" d="M1459.21,-643.59C1453.37,-622.89 1443.46,-587.69 1436.59,-563.29"/>
<polygon fill="#ca8a04" stroke="#ca8a04" stroke-width="1.5" points="1439.93,-562.25 1433.85,-553.57 1433.19,-564.14 1439.93,-562.25"/>
<text text-anchor="start" x="1449" y="-599.16" font-family="Helvetica,sans-Serif" font-size="9.00" fill="#ca8a04"> &#160;Visages détectés &#160;</text>
</g>
<!-- talents_db -->
<g id="node9" class="node">
<title>talents_db</title>
<polygon fill="#fef3c7" stroke="#ca8a04" stroke-width="1.5" points="1478.5,-426.36 1357.5,-426.36 1357.5,-390.36 1484.5,-390.36 1484.5,-420.36 1478.5,-426.36"/>
<polyline fill="none" stroke="#ca8a04" stroke-width="1.5" points="1478.5,-426.36 1478.5,-420.36 "/>
<polyline fill="none" stroke="#ca8a04" stroke-width="1.5" points="1484.5,-420.36 1478.5,-420.36 "/>
<text text-anchor="start" x="1384" y="-410.56" font-family="Helvetica,sans-Serif" font-weight="bold" font-size="11.00" fill="#713f12">talents.json</text>
<text text-anchor="start" x="1365.5" y="-401.16" font-family="Helvetica,sans-Serif" font-size="9.00" fill="#713f12">Base de données talents</text>
</g>
<!-- reconnaissance&#45;&gt;talents_db -->
<g id="edge7" class="edge">
<title>reconnaissance&#45;&gt;talents_db</title>
<path fill="none" stroke="#ca8a04" stroke-width="1.5" stroke-dasharray="5,2" d="M1416.69,-517.14C1410.35,-507.2 1403.27,-494.16 1400,-481.36 1396.11,-466.13 1400.55,-449.26 1406.34,-435.68"/>
<polygon fill="#ca8a04" stroke="#ca8a04" stroke-width="1.5" points="1409.6,-436.98 1410.69,-426.44 1403.26,-433.99 1409.6,-436.98"/>
<text text-anchor="start" x="1400" y="-474.16" font-family="Helvetica,sans-Serif" font-size="9.00" fill="#ca8a04"> &#160;Lookup &#160;</text>
</g>
<!-- zmq_pub -->
<g id="node10" class="node">
<title>zmq_pub</title>
<path fill="#c7d2fe" stroke="#6366f1" stroke-width="1.5" d="M303.5,-679.61C303.5,-679.61 244.5,-679.61 244.5,-679.61 238.5,-679.61 232.5,-673.61 232.5,-667.61 232.5,-667.61 232.5,-655.61 232.5,-655.61 232.5,-649.61 238.5,-643.61 244.5,-643.61 244.5,-643.61 303.5,-643.61 303.5,-643.61 309.5,-643.61 315.5,-649.61 315.5,-655.61 315.5,-655.61 315.5,-667.61 315.5,-667.61 315.5,-673.61 309.5,-679.61 303.5,-679.61"/>
<text text-anchor="start" x="261" y="-663.81" font-family="Helvetica,sans-Serif" font-weight="bold" font-size="11.00" fill="#3730a3">PUB</text>
<text text-anchor="start" x="240.5" y="-654.41" font-family="Helvetica,sans-Serif" font-size="9.00" fill="#3730a3">Python → C++</text>
</g>
<!-- reconnaissance&#45;&gt;zmq_pub -->
<g id="edge17" class="edge">
<title>reconnaissance&#45;&gt;zmq_pub</title>
<path fill="none" stroke="#6366f1" stroke-width="2" d="M1405.18,-553.4C1386.91,-565.48 1360.58,-580.82 1335,-588.36 1237.68,-617.05 525.22,-649.74 325.76,-658.41"/>
<polygon fill="#6366f1" stroke="#6366f1" stroke-width="2" points="325.39,-654.92 315.56,-658.85 325.7,-661.91 325.39,-654.92"/>
<text text-anchor="start" x="1293" y="-599.16" font-family="Helvetica,sans-Serif" font-size="9.00" fill="#6366f1"> &#160;Envoi métadonnées &#160;</text>
</g>
<!-- talents_db&#45;&gt;reconnaissance -->
<g id="edge8" class="edge">
<title>talents_db&#45;&gt;reconnaissance</title>
<path fill="none" stroke="#ca8a04" stroke-width="1.5" stroke-dasharray="5,2" d="M1432.61,-426.38C1440.06,-438.37 1449.06,-455.12 1453,-471.36 1456.04,-483.89 1452.02,-497.3 1446.46,-508.52"/>
<polygon fill="#ca8a04" stroke="#ca8a04" stroke-width="1.5" points="1443.34,-506.91 1441.54,-517.35 1449.46,-510.32 1443.34,-506.91"/>
<text text-anchor="start" x="1455" y="-474.16" font-family="Helvetica,sans-Serif" font-size="9.00" fill="#ca8a04"> &#160;Match &#160;</text>
</g>
<!-- zmq_sub -->
<g id="node11" class="node">
<title>zmq_sub</title>
<path fill="#c7d2fe" stroke="#6366f1" stroke-width="1.5" d="M304.5,-553.36C304.5,-553.36 215.5,-553.36 215.5,-553.36 209.5,-553.36 203.5,-547.36 203.5,-541.36 203.5,-541.36 203.5,-529.36 203.5,-529.36 203.5,-523.36 209.5,-517.36 215.5,-517.36 215.5,-517.36 304.5,-517.36 304.5,-517.36 310.5,-517.36 316.5,-523.36 316.5,-529.36 316.5,-529.36 316.5,-541.36 316.5,-541.36 316.5,-547.36 310.5,-553.36 304.5,-553.36"/>
<text text-anchor="start" x="247" y="-537.56" font-family="Helvetica,sans-Serif" font-weight="bold" font-size="11.00" fill="#3730a3">SUB</text>
<text text-anchor="start" x="211.5" y="-528.16" font-family="Helvetica,sans-Serif" font-size="9.00" fill="#3730a3">tcp://127.0.0.1:5555</text>
</g>
<!-- zmq_pub&#45;&gt;zmq_sub -->
<g id="edge9" class="edge">
<title>zmq_pub&#45;&gt;zmq_sub</title>
<path fill="none" stroke="#6366f1" stroke-width="2" d="M262.4,-643.37C256.2,-633.11 249.2,-619.54 246,-606.36 242.56,-592.2 245.23,-576.28 249.13,-563.21"/>
<polygon fill="#6366f1" stroke="#6366f1" stroke-width="2" points="252.55,-564.01 252.42,-553.42 245.92,-561.78 252.55,-564.01"/>
<text text-anchor="start" x="246" y="-599.16" font-family="Helvetica,sans-Serif" font-size="9.00" fill="#6366f1"> &#160;Métadonnées IA &#160;</text>
</g>
<!-- overlays_engine -->
<g id="node13" class="node">
<title>overlays_engine</title>
<path fill="#fca5a5" stroke="#dc2626" stroke-width="1.5" d="M475.5,-426.36C475.5,-426.36 398.5,-426.36 398.5,-426.36 392.5,-426.36 386.5,-420.36 386.5,-414.36 386.5,-414.36 386.5,-402.36 386.5,-402.36 386.5,-396.36 392.5,-390.36 398.5,-390.36 398.5,-390.36 475.5,-390.36 475.5,-390.36 481.5,-390.36 487.5,-396.36 487.5,-402.36 487.5,-402.36 487.5,-414.36 487.5,-414.36 487.5,-420.36 481.5,-426.36 475.5,-426.36"/>
<text text-anchor="start" x="409.5" y="-410.56" font-family="Helvetica,sans-Serif" font-weight="bold" font-size="11.00" fill="#7f1d1d">Overlays</text>
<text text-anchor="start" x="394.5" y="-401.16" font-family="Helvetica,sans-Serif" font-size="9.00" fill="#7f1d1d">Lower thirds, titres</text>
</g>
<!-- zmq_sub&#45;&gt;overlays_engine -->
<g id="edge18" class="edge">
<title>zmq_sub&#45;&gt;overlays_engine</title>
<path fill="none" stroke="#dc2626" stroke-width="2" d="M252.24,-517.25C247.32,-503.58 243.5,-484.59 253,-471.36 280.8,-432.66 333.99,-417.8 376.06,-412.24"/>
<polygon fill="#dc2626" stroke="#dc2626" stroke-width="2" points="376.7,-415.69 386.22,-411.05 375.88,-408.74 376.7,-415.69"/>
<text text-anchor="start" x="253" y="-474.16" font-family="Helvetica,sans-Serif" font-size="9.00" fill="#dc2626"> &#160;Données talent &#160;</text>
</g>
<!-- gpu_pipeline&#45;&gt;detection -->
<g id="edge24" class="edge">
<title>gpu_pipeline&#45;&gt;detection</title>
<path fill="none" stroke="#ca8a04" stroke-width="2" d="M649.22,-292.26C841.18,-297.43 1445.58,-318.23 1509,-376.36 1585.49,-446.47 1598.87,-515.37 1549,-606.36 1541.69,-619.71 1529.54,-630.25 1516.68,-638.34"/>
<polygon fill="#ca8a04" stroke="#ca8a04" stroke-width="2" points="1514.59,-635.51 1507.72,-643.56 1518.12,-641.56 1514.59,-635.51"/>
<text text-anchor="start" x="1576" y="-474.16" font-family="Helvetica,sans-Serif" font-size="9.00" fill="#ca8a04"> &#160;Frame vidéo &#160;</text>
</g>
<!-- sortie -->
<g id="node21" class="node">
<title>sortie</title>
<path fill="#dbeafe" stroke="#2563eb" stroke-width="1.5" d="M1475.57,-155.48C1475.57,-155.48 1475.57,-161.38 1475.57,-161.38 1475.57,-164.33 1472.71,-167.97 1469.84,-168.67 1469.84,-168.67 1429.43,-178.42 1429.43,-178.42 1426.56,-179.11 1420.74,-179.8 1417.79,-179.8 1417.79,-179.8 1356.21,-179.8 1356.21,-179.8 1353.26,-179.8 1347.44,-179.11 1344.57,-178.42 1344.57,-178.42 1304.16,-168.67 1304.16,-168.67 1301.29,-167.97 1298.43,-164.33 1298.43,-161.38 1298.43,-161.38 1298.43,-155.48 1298.43,-155.48 1298.43,-152.53 1301.29,-148.89 1304.16,-148.19 1304.16,-148.19 1344.57,-138.44 1344.57,-138.44 1347.44,-137.75 1353.26,-137.06 1356.21,-137.06 1356.21,-137.06 1417.79,-137.06 1417.79,-137.06 1420.74,-137.06 1426.56,-137.75 1429.43,-138.44 1429.43,-138.44 1469.84,-148.19 1469.84,-148.19 1472.71,-148.89 1475.57,-152.53 1475.57,-155.48"/>
<path fill="none" stroke="#2563eb" stroke-width="1.5" d="M1479.57,-154.43C1479.57,-154.43 1479.57,-162.43 1479.57,-162.43 1479.57,-166.43 1475.68,-171.36 1471.79,-172.3 1471.79,-172.3 1431.94,-181.92 1431.94,-181.92 1428.05,-182.85 1420.17,-183.79 1416.17,-183.79 1416.17,-183.79 1357.83,-183.79 1357.83,-183.79 1353.83,-183.79 1345.95,-182.85 1342.06,-181.92 1342.06,-181.92 1302.21,-172.3 1302.21,-172.3 1298.32,-171.36 1294.43,-166.43 1294.43,-162.43 1294.43,-162.43 1294.43,-154.43 1294.43,-154.43 1294.43,-150.43 1298.32,-145.5 1302.21,-144.56 1302.21,-144.56 1342.06,-134.94 1342.06,-134.94 1345.95,-134.01 1353.83,-133.07 1357.83,-133.07 1357.83,-133.07 1416.17,-133.07 1416.17,-133.07 1420.17,-133.07 1428.05,-134.01 1431.94,-134.94 1431.94,-134.94 1471.79,-144.56 1471.79,-144.56 1475.68,-145.5 1479.57,-150.43 1479.57,-154.43"/>
<text text-anchor="start" x="1349" y="-160.63" font-family="Helvetica,sans-Serif" font-weight="bold" font-size="11.00" fill="#1e3a5f">Sortie finale</text>
<text text-anchor="start" x="1337" y="-151.23" font-family="Helvetica,sans-Serif" font-size="9.00" fill="#1e3a5f">SDI / NDI / SRT / RTMP</text>
</g>
<!-- gpu_pipeline&#45;&gt;sortie -->
<g id="edge25" class="edge">
<title>gpu_pipeline&#45;&gt;sortie</title>
<path fill="none" stroke="#2563eb" stroke-width="3" d="M649.21,-279.4C784.92,-257.33 1123.44,-202.29 1290.56,-175.11"/>
<polygon fill="#2563eb" stroke="#2563eb" stroke-width="3" points="1291.45,-179.93 1304.48,-172.85 1289.88,-170.26 1291.45,-179.93"/>
<text text-anchor="start" x="1013" y="-222.66" font-family="Helvetica,sans-Serif" font-size="9.00" fill="#2563eb"> &#160;Flux vidéo sortant &#160;</text>
</g>
<!-- overlays_engine&#45;&gt;gpu_pipeline -->
<g id="edge10" class="edge">
<title>overlays_engine&#45;&gt;gpu_pipeline</title>
<path fill="none" stroke="#dc2626" stroke-width="1.5" d="M448.51,-390.12C458.33,-376.35 473.46,-357.21 490,-343.86 505.21,-331.58 523.71,-320.89 540.7,-312.39"/>
<polygon fill="#dc2626" stroke="#dc2626" stroke-width="1.5" points="542.48,-315.41 549.95,-307.89 539.42,-309.12 542.48,-315.41"/>
<text text-anchor="start" x="490" y="-346.66" font-family="Helvetica,sans-Serif" font-size="9.00" fill="#dc2626"> &#160;Overlays appliqués &#160;</text>
</g>
<!-- filtres_globaux -->
<g id="node14" class="node">
<title>filtres_globaux</title>
<path fill="#bbf7d0" stroke="#16a34a" stroke-width="1.5" d="M664,-426.86C664,-426.86 550,-426.86 550,-426.86 544,-426.86 538,-420.86 538,-414.86 538,-414.86 538,-401.86 538,-401.86 538,-395.86 544,-389.86 550,-389.86 550,-389.86 664,-389.86 664,-389.86 670,-389.86 676,-395.86 676,-401.86 676,-401.86 676,-414.86 676,-414.86 676,-420.86 670,-426.86 664,-426.86"/>
<text text-anchor="start" x="561" y="-415.06" font-family="Helvetica,sans-Serif" font-weight="bold" font-size="11.00" fill="#14532d">Filtres globaux</text>
<text text-anchor="start" x="561.5" y="-405.66" font-family="Helvetica,sans-Serif" font-size="9.00" fill="#14532d">LUT · sharpen · HDR</text>
<text text-anchor="start" x="546" y="-396.66" font-family="Helvetica,sans-Serif" font-size="9.00" fill="#14532d">noise reduction · contraste</text>
</g>
<!-- filtres_globaux&#45;&gt;gpu_pipeline -->
<g id="edge11" class="edge">
<title>filtres_globaux&#45;&gt;gpu_pipeline</title>
<path fill="none" stroke="#16a34a" stroke-width="1.5" d="M604.57,-389.67C601.96,-370.63 597.77,-340.12 594.73,-318.04"/>
<polygon fill="#16a34a" stroke="#16a34a" stroke-width="1.5" points="598.18,-317.39 593.35,-307.96 591.24,-318.34 598.18,-317.39"/>
<text text-anchor="start" x="600" y="-346.66" font-family="Helvetica,sans-Serif" font-size="9.00" fill="#16a34a"> &#160;Filtres appliqués &#160;</text>
</g>
<!-- timer -->
<g id="node15" class="node">
<title>timer</title>
<path fill="#fca5a5" stroke="#dc2626" stroke-width="1.5" d="M537.5,-553.36C537.5,-553.36 464.5,-553.36 464.5,-553.36 458.5,-553.36 452.5,-547.36 452.5,-541.36 452.5,-541.36 452.5,-529.36 452.5,-529.36 452.5,-523.36 458.5,-517.36 464.5,-517.36 464.5,-517.36 537.5,-517.36 537.5,-517.36 543.5,-517.36 549.5,-523.36 549.5,-529.36 549.5,-529.36 549.5,-541.36 549.5,-541.36 549.5,-547.36 543.5,-553.36 537.5,-553.36"/>
<text text-anchor="start" x="483" y="-537.56" font-family="Helvetica,sans-Serif" font-weight="bold" font-size="11.00" fill="#7f1d1d">Timer</text>
<text text-anchor="start" x="460.5" y="-528.16" font-family="Helvetica,sans-Serif" font-size="9.00" fill="#7f1d1d">Durée d&#39;affichage</text>
</g>
<!-- timer&#45;&gt;overlays_engine -->
<g id="edge12" class="edge">
<title>timer&#45;&gt;overlays_engine</title>
<path fill="none" stroke="#dc2626" stroke-width="1.5" stroke-dasharray="5,2" d="M492.24,-517.24C481.48,-496.23 463.11,-460.36 450.54,-435.8"/>
<polygon fill="#dc2626" stroke="#dc2626" stroke-width="1.5" points="453.54,-433.98 445.86,-426.67 447.31,-437.17 453.54,-433.98"/>
<text text-anchor="start" x="473" y="-474.16" font-family="Helvetica,sans-Serif" font-size="9.00" fill="#dc2626"> &#160;Durée &#160;</text>
</g>
<!-- main_window -->
<g id="node16" class="node">
<title>main_window</title>
<path fill="#ddd6fe" stroke="#7c3aed" stroke-width="1.5" d="M985,-679.61C985,-679.61 905,-679.61 905,-679.61 899,-679.61 893,-673.61 893,-667.61 893,-667.61 893,-655.61 893,-655.61 893,-649.61 899,-643.61 905,-643.61 905,-643.61 985,-643.61 985,-643.61 991,-643.61 997,-649.61 997,-655.61 997,-655.61 997,-667.61 997,-667.61 997,-673.61 991,-679.61 985,-679.61"/>
<text text-anchor="start" x="905.5" y="-663.81" font-family="Helvetica,sans-Serif" font-weight="bold" font-size="11.00" fill="#4c1d95">MainWindow</text>
<text text-anchor="start" x="901" y="-654.41" font-family="Helvetica,sans-Serif" font-size="9.00" fill="#4c1d95">Interface principale</text>
</g>
<!-- main_window&#45;&gt;gpu_pipeline -->
<g id="edge19" class="edge">
<title>main_window&#45;&gt;gpu_pipeline</title>
<path fill="none" stroke="#7c3aed" stroke-width="1.5" stroke-dasharray="5,2" d="M892.87,-652.69C809.24,-640.09 639.89,-614.99 496,-596.36 480.69,-594.38 439.74,-597.08 427,-588.36 375.16,-552.88 376.11,-524.34 361,-463.36 351.7,-425.83 338.93,-408.11 361,-376.36 397.15,-324.36 468.88,-303.92 522.67,-295.92"/>
<polygon fill="#7c3aed" stroke="#7c3aed" stroke-width="1.5" points="523.41,-299.35 532.84,-294.53 522.45,-292.42 523.41,-299.35"/>
<text text-anchor="start" x="366" y="-474.16" font-family="Helvetica,sans-Serif" font-size="9.00" fill="#7c3aed"> &#160;Contrôle &#160;</text>
</g>
<!-- preview_panel -->
<g id="node17" class="node">
<title>preview_panel</title>
<path fill="#ddd6fe" stroke="#7c3aed" stroke-width="1.5" d="M986.5,-553.36C986.5,-553.36 903.5,-553.36 903.5,-553.36 897.5,-553.36 891.5,-547.36 891.5,-541.36 891.5,-541.36 891.5,-529.36 891.5,-529.36 891.5,-523.36 897.5,-517.36 903.5,-517.36 903.5,-517.36 986.5,-517.36 986.5,-517.36 992.5,-517.36 998.5,-523.36 998.5,-529.36 998.5,-529.36 998.5,-541.36 998.5,-541.36 998.5,-547.36 992.5,-553.36 986.5,-553.36"/>
<text text-anchor="start" x="919.5" y="-537.56" font-family="Helvetica,sans-Serif" font-weight="bold" font-size="11.00" fill="#4c1d95">Preview</text>
<text text-anchor="start" x="899.5" y="-528.16" font-family="Helvetica,sans-Serif" font-size="9.00" fill="#4c1d95">Moniteur temps réel</text>
</g>
<!-- main_window&#45;&gt;preview_panel -->
<!-- overlay_editor -->
<g id="node18" class="node">
<title>overlay_editor</title>
<path fill="#ddd6fe" stroke="#7c3aed" stroke-width="1.5" d="M829.5,-553.36C829.5,-553.36 736.5,-553.36 736.5,-553.36 730.5,-553.36 724.5,-547.36 724.5,-541.36 724.5,-541.36 724.5,-529.36 724.5,-529.36 724.5,-523.36 730.5,-517.36 736.5,-517.36 736.5,-517.36 829.5,-517.36 829.5,-517.36 835.5,-517.36 841.5,-523.36 841.5,-529.36 841.5,-529.36 841.5,-541.36 841.5,-541.36 841.5,-547.36 835.5,-553.36 829.5,-553.36"/>
<text text-anchor="start" x="732.5" y="-537.56" font-family="Helvetica,sans-Serif" font-weight="bold" font-size="11.00" fill="#4c1d95">Éditeur overlays</text>
<text text-anchor="start" x="741" y="-528.16" font-family="Helvetica,sans-Serif" font-size="9.00" fill="#4c1d95">Templates &amp; styles</text>
</g>
<!-- main_window&#45;&gt;overlay_editor -->
<!-- talent_manager -->
<g id="node19" class="node">
<title>talent_manager</title>
<path fill="#ddd6fe" stroke="#7c3aed" stroke-width="1.5" d="M1147.5,-553.36C1147.5,-553.36 1060.5,-553.36 1060.5,-553.36 1054.5,-553.36 1048.5,-547.36 1048.5,-541.36 1048.5,-541.36 1048.5,-529.36 1048.5,-529.36 1048.5,-523.36 1054.5,-517.36 1060.5,-517.36 1060.5,-517.36 1147.5,-517.36 1147.5,-517.36 1153.5,-517.36 1159.5,-523.36 1159.5,-529.36 1159.5,-529.36 1159.5,-541.36 1159.5,-541.36 1159.5,-547.36 1153.5,-553.36 1147.5,-553.36"/>
<text text-anchor="start" x="1056.5" y="-537.56" font-family="Helvetica,sans-Serif" font-weight="bold" font-size="11.00" fill="#4c1d95">Gestion talents</text>
<text text-anchor="start" x="1074" y="-528.16" font-family="Helvetica,sans-Serif" font-size="9.00" fill="#4c1d95">CRUD talents</text>
</g>
<!-- main_window&#45;&gt;talent_manager -->
<!-- output_config -->
<g id="node20" class="node">
<title>output_config</title>
<path fill="#ddd6fe" stroke="#7c3aed" stroke-width="1.5" d="M1296.5,-553.36C1296.5,-553.36 1221.5,-553.36 1221.5,-553.36 1215.5,-553.36 1209.5,-547.36 1209.5,-541.36 1209.5,-541.36 1209.5,-529.36 1209.5,-529.36 1209.5,-523.36 1215.5,-517.36 1221.5,-517.36 1221.5,-517.36 1296.5,-517.36 1296.5,-517.36 1302.5,-517.36 1308.5,-523.36 1308.5,-529.36 1308.5,-529.36 1308.5,-541.36 1308.5,-541.36 1308.5,-547.36 1302.5,-553.36 1296.5,-553.36"/>
<text text-anchor="start" x="1219.5" y="-537.56" font-family="Helvetica,sans-Serif" font-weight="bold" font-size="11.00" fill="#4c1d95">Config sortie</text>
<text text-anchor="start" x="1217.5" y="-528.16" font-family="Helvetica,sans-Serif" font-size="9.00" fill="#4c1d95">Résolution, format</text>
</g>
<!-- main_window&#45;&gt;output_config -->
<!-- preview_panel&#45;&gt;gpu_pipeline -->
<g id="edge22" class="edge">
<title>preview_panel&#45;&gt;gpu_pipeline</title>
<path fill="none" stroke="#7c3aed" stroke-width="1.5" stroke-dasharray="5,2" d="M925.38,-517.18C884.65,-482 787.2,-400.32 697,-343.86 678.58,-332.33 657.3,-321.29 638.67,-312.3"/>
<polygon fill="#7c3aed" stroke="#7c3aed" stroke-width="1.5" points="640.02,-309.06 629.48,-307.92 637.01,-315.38 640.02,-309.06"/>
<text text-anchor="start" x="859" y="-406.16" font-family="Helvetica,sans-Serif" font-size="9.00" fill="#7c3aed"> &#160;Preview &#160;</text>
</g>
<!-- overlay_editor&#45;&gt;overlays_engine -->
<g id="edge20" class="edge">
<title>overlay_editor&#45;&gt;overlays_engine</title>
<path fill="none" stroke="#7c3aed" stroke-width="1.5" stroke-dasharray="5,2" d="M742.22,-517.32C729.48,-512.39 715.29,-507.28 702,-503.36 619.65,-479.05 591.64,-497.83 513,-463.36 495.57,-455.72 478.11,-443.7 464.34,-432.94"/>
<polygon fill="#7c3aed" stroke="#7c3aed" stroke-width="1.5" points="466.25,-430 456.27,-426.46 461.87,-435.45 466.25,-430"/>
<text text-anchor="start" x="566" y="-474.16" font-family="Helvetica,sans-Serif" font-size="9.00" fill="#7c3aed"> &#160;Config overlays &#160;</text>
</g>
<!-- talent_manager&#45;&gt;talents_db -->
<g id="edge21" class="edge">
<title>talent_manager&#45;&gt;talents_db</title>
<path fill="none" stroke="#7c3aed" stroke-width="1.5" stroke-dasharray="5,2" d="M1147.41,-517.24C1204.95,-494.55 1306.4,-454.55 1368.28,-430.15"/>
<polygon fill="#7c3aed" stroke="#7c3aed" stroke-width="1.5" points="1369.84,-433.3 1377.86,-426.37 1367.27,-426.78 1369.84,-433.3"/>
<text text-anchor="start" x="1263" y="-474.16" font-family="Helvetica,sans-Serif" font-size="9.00" fill="#7c3aed"> &#160;Gestion &#160;</text>
</g>
<!-- output_config&#45;&gt;sortie -->
<g id="edge26" class="edge">
<title>output_config&#45;&gt;sortie</title>
<path fill="none" stroke="#7c3aed" stroke-width="1.5" stroke-dasharray="5,2" d="M1292.24,-517.23C1304.16,-511.86 1317.9,-506.51 1331,-503.36 1367.7,-494.55 1644.19,-508.9 1670,-481.36 1769.88,-374.79 1550.24,-242.39 1442.33,-186.42"/>
<polygon fill="#7c3aed" stroke="#7c3aed" stroke-width="1.5" points="1443.68,-183.18 1433.18,-181.72 1440.48,-189.4 1443.68,-183.18"/>
<text text-anchor="start" x="1666" y="-346.66" font-family="Helvetica,sans-Serif" font-size="9.00" fill="#7c3aed"> &#160;Config sortie &#160;</text>
</g>
<!-- leg_video -->
<g id="node22" class="node">
<title>leg_video</title>
<path fill="#93c5fd" stroke="#2563eb" stroke-width="1.5" d="M1929.33,-677.61C1929.33,-677.61 1806.67,-677.61 1806.67,-677.61 1801.33,-677.61 1796,-672.28 1796,-666.94 1796,-666.94 1796,-656.28 1796,-656.28 1796,-650.94 1801.33,-645.61 1806.67,-645.61 1806.67,-645.61 1929.33,-645.61 1929.33,-645.61 1934.67,-645.61 1940,-650.94 1940,-656.28 1940,-656.28 1940,-666.94 1940,-666.94 1940,-672.28 1934.67,-677.61 1929.33,-677.61"/>
<text text-anchor="start" x="1829" y="-659.81" font-family="Helvetica,sans-Serif" font-weight="bold" font-size="11.00" fill="#1e3a5f">Bleu</text>
<text text-anchor="start" x="1857" y="-659.81" font-family="Helvetica,sans-Serif" font-size="11.00" fill="#1e3a5f"> — Vidéo</text>
</g>
<!-- leg_ia -->
<g id="node23" class="node">
<title>leg_ia</title>
<path fill="#fde68a" stroke="#ca8a04" stroke-width="1.5" d="M1929.33,-551.36C1929.33,-551.36 1806.67,-551.36 1806.67,-551.36 1801.33,-551.36 1796,-546.03 1796,-540.69 1796,-540.69 1796,-530.03 1796,-530.03 1796,-524.69 1801.33,-519.36 1806.67,-519.36 1806.67,-519.36 1929.33,-519.36 1929.33,-519.36 1934.67,-519.36 1940,-524.69 1940,-530.03 1940,-530.03 1940,-540.69 1940,-540.69 1940,-546.03 1934.67,-551.36 1929.33,-551.36"/>
<text text-anchor="start" x="1836" y="-533.56" font-family="Helvetica,sans-Serif" font-weight="bold" font-size="11.00" fill="#713f12">Jaune</text>
<text text-anchor="start" x="1870" y="-533.56" font-family="Helvetica,sans-Serif" font-size="11.00" fill="#713f12"> — IA</text>
</g>
<!-- leg_video&#45;&gt;leg_ia -->
<!-- leg_over -->
<g id="node24" class="node">
<title>leg_over</title>
<path fill="#fca5a5" stroke="#dc2626" stroke-width="1.5" d="M1929.33,-424.36C1929.33,-424.36 1806.67,-424.36 1806.67,-424.36 1801.33,-424.36 1796,-419.03 1796,-413.69 1796,-413.69 1796,-403.03 1796,-403.03 1796,-397.69 1801.33,-392.36 1806.67,-392.36 1806.67,-392.36 1929.33,-392.36 1929.33,-392.36 1934.67,-392.36 1940,-397.69 1940,-403.03 1940,-403.03 1940,-413.69 1940,-413.69 1940,-419.03 1934.67,-424.36 1929.33,-424.36"/>
<text text-anchor="start" x="1814" y="-406.56" font-family="Helvetica,sans-Serif" font-weight="bold" font-size="11.00" fill="#7f1d1d">Rouge</text>
<text text-anchor="start" x="1853" y="-406.56" font-family="Helvetica,sans-Serif" font-size="11.00" fill="#7f1d1d"> — Overlays</text>
</g>
<!-- leg_ia&#45;&gt;leg_over -->
<!-- leg_filt -->
<g id="node25" class="node">
<title>leg_filt</title>
<path fill="#bbf7d0" stroke="#16a34a" stroke-width="1.5" d="M1929.33,-305.86C1929.33,-305.86 1806.67,-305.86 1806.67,-305.86 1801.33,-305.86 1796,-300.53 1796,-295.19 1796,-295.19 1796,-284.53 1796,-284.53 1796,-279.19 1801.33,-273.86 1806.67,-273.86 1806.67,-273.86 1929.33,-273.86 1929.33,-273.86 1934.67,-273.86 1940,-279.19 1940,-284.53 1940,-284.53 1940,-295.19 1940,-295.19 1940,-300.53 1934.67,-305.86 1929.33,-305.86"/>
<text text-anchor="start" x="1828.5" y="-288.06" font-family="Helvetica,sans-Serif" font-weight="bold" font-size="11.00" fill="#14532d">Vert</text>
<text text-anchor="start" x="1855.5" y="-288.06" font-family="Helvetica,sans-Serif" font-size="11.00" fill="#14532d"> — Filtres</text>
</g>
<!-- leg_over&#45;&gt;leg_filt -->
<!-- leg_regie -->
<g id="node26" class="node">
<title>leg_regie</title>
<path fill="#ddd6fe" stroke="#7c3aed" stroke-width="1.5" d="M1929.33,-174.43C1929.33,-174.43 1806.67,-174.43 1806.67,-174.43 1801.33,-174.43 1796,-169.1 1796,-163.76 1796,-163.76 1796,-153.1 1796,-153.1 1796,-147.76 1801.33,-142.43 1806.67,-142.43 1806.67,-142.43 1929.33,-142.43 1929.33,-142.43 1934.67,-142.43 1940,-147.76 1940,-153.1 1940,-153.1 1940,-163.76 1940,-163.76 1940,-169.1 1934.67,-174.43 1929.33,-174.43"/>
<text text-anchor="start" x="1824.5" y="-156.63" font-family="Helvetica,sans-Serif" font-weight="bold" font-size="11.00" fill="#4c1d95">Violet</text>
<text text-anchor="start" x="1861.5" y="-156.63" font-family="Helvetica,sans-Serif" font-size="11.00" fill="#4c1d95"> — Régie</text>
</g>
<!-- leg_filt&#45;&gt;leg_regie -->
<!-- leg_ipc -->
<g id="node27" class="node">
<title>leg_ipc</title>
<path fill="#c7d2fe" stroke="#6366f1" stroke-width="1.5" d="M1931.33,-58C1931.33,-58 1804.67,-58 1804.67,-58 1799.33,-58 1794,-52.67 1794,-47.33 1794,-47.33 1794,-36.67 1794,-36.67 1794,-31.33 1799.33,-26 1804.67,-26 1804.67,-26 1931.33,-26 1931.33,-26 1936.67,-26 1942,-31.33 1942,-36.67 1942,-36.67 1942,-47.33 1942,-47.33 1942,-52.67 1936.67,-58 1931.33,-58"/>
<text text-anchor="start" x="1802" y="-40.2" font-family="Helvetica,sans-Serif" font-weight="bold" font-size="11.00" fill="#3730a3">Indigo</text>
<text text-anchor="start" x="1840" y="-40.2" font-family="Helvetica,sans-Serif" font-size="11.00" fill="#3730a3"> — IPC (ZeroMQ)</text>
</g>
<!-- leg_regie&#45;&gt;leg_ipc -->
<!-- wf1 -->
<g id="node28" class="node">
<title>wf1</title>
<path fill="#fde68a" stroke="#ca8a04" stroke-width="1.5" d="M2100.83,-676.11C2100.83,-676.11 2005.17,-676.11 2005.17,-676.11 2000.33,-676.11 1995.5,-671.28 1995.5,-666.44 1995.5,-666.44 1995.5,-656.78 1995.5,-656.78 1995.5,-651.94 2000.33,-647.11 2005.17,-647.11 2005.17,-647.11 2100.83,-647.11 2100.83,-647.11 2105.67,-647.11 2110.5,-651.94 2110.5,-656.78 2110.5,-656.78 2110.5,-666.44 2110.5,-666.44 2110.5,-671.28 2105.67,-676.11 2100.83,-676.11"/>
<text text-anchor="middle" x="2053" y="-659.11" font-family="Helvetica,sans-Serif" font-size="10.00" fill="#713f12">① Détection</text>
</g>
<!-- wf2 -->
<g id="node29" class="node">
<title>wf2</title>
<path fill="#fde68a" stroke="#ca8a04" stroke-width="1.5" d="M2100.83,-549.86C2100.83,-549.86 2005.17,-549.86 2005.17,-549.86 2000.33,-549.86 1995.5,-545.03 1995.5,-540.19 1995.5,-540.19 1995.5,-530.53 1995.5,-530.53 1995.5,-525.69 2000.33,-520.86 2005.17,-520.86 2005.17,-520.86 2100.83,-520.86 2100.83,-520.86 2105.67,-520.86 2110.5,-525.69 2110.5,-530.53 2110.5,-530.53 2110.5,-540.19 2110.5,-540.19 2110.5,-545.03 2105.67,-549.86 2100.83,-549.86"/>
<text text-anchor="middle" x="2053" y="-532.86" font-family="Helvetica,sans-Serif" font-size="10.00" fill="#713f12">② Reconnaissance</text>
</g>
<!-- wf1&#45;&gt;wf2 -->
<g id="edge32" class="edge">
<title>wf1&#45;&gt;wf2</title>
<path fill="none" stroke="#64748b" stroke-width="1.5" d="M2053,-646.84C2053,-625.38 2053,-583.78 2053,-558.2"/>
<polygon fill="#64748b" stroke="#64748b" stroke-width="1.5" points="2055.8,-558.19 2053,-550.19 2050.2,-558.19 2055.8,-558.19"/>
</g>
<!-- wf3 -->
<g id="node30" class="node">
<title>wf3</title>
<path fill="#c7d2fe" stroke="#6366f1" stroke-width="1.5" d="M2105.83,-422.86C2105.83,-422.86 2000.17,-422.86 2000.17,-422.86 1995.33,-422.86 1990.5,-418.03 1990.5,-413.19 1990.5,-413.19 1990.5,-403.53 1990.5,-403.53 1990.5,-398.69 1995.33,-393.86 2000.17,-393.86 2000.17,-393.86 2105.83,-393.86 2105.83,-393.86 2110.67,-393.86 2115.5,-398.69 2115.5,-403.53 2115.5,-403.53 2115.5,-413.19 2115.5,-413.19 2115.5,-418.03 2110.67,-422.86 2105.83,-422.86"/>
<text text-anchor="middle" x="2053" y="-405.86" font-family="Helvetica,sans-Serif" font-size="10.00" fill="#3730a3">③ Envoi métadonnées</text>
</g>
<!-- wf2&#45;&gt;wf3 -->
<g id="edge33" class="edge">
<title>wf2&#45;&gt;wf3</title>
<path fill="none" stroke="#64748b" stroke-width="1.5" d="M2053,-520.51C2053,-498.8 2053,-456.63 2053,-430.93"/>
<polygon fill="#64748b" stroke="#64748b" stroke-width="1.5" points="2055.8,-430.9 2053,-422.9 2050.2,-430.9 2055.8,-430.9"/>
</g>
<!-- wf4 -->
<g id="node31" class="node">
<title>wf4</title>
<path fill="#fca5a5" stroke="#dc2626" stroke-width="1.5" d="M2100.83,-304.36C2100.83,-304.36 2005.17,-304.36 2005.17,-304.36 2000.33,-304.36 1995.5,-299.53 1995.5,-294.69 1995.5,-294.69 1995.5,-285.03 1995.5,-285.03 1995.5,-280.19 2000.33,-275.36 2005.17,-275.36 2005.17,-275.36 2100.83,-275.36 2100.83,-275.36 2105.67,-275.36 2110.5,-280.19 2110.5,-285.03 2110.5,-285.03 2110.5,-294.69 2110.5,-294.69 2110.5,-299.53 2105.67,-304.36 2100.83,-304.36"/>
<text text-anchor="middle" x="2053" y="-287.36" font-family="Helvetica,sans-Serif" font-size="10.00" fill="#7f1d1d">④ Affichage overlay</text>
</g>
<!-- wf3&#45;&gt;wf4 -->
<g id="edge34" class="edge">
<title>wf3&#45;&gt;wf4</title>
<path fill="none" stroke="#64748b" stroke-width="1.5" d="M2053,-393.54C2053,-373.57 2053,-336.45 2053,-312.74"/>
<polygon fill="#64748b" stroke="#64748b" stroke-width="1.5" points="2055.8,-312.66 2053,-304.66 2050.2,-312.66 2055.8,-312.66"/>
</g>
<!-- wf5 -->
<g id="node32" class="node">
<title>wf5</title>
<path fill="#fca5a5" stroke="#dc2626" stroke-width="1.5" d="M2100.83,-172.93C2100.83,-172.93 2005.17,-172.93 2005.17,-172.93 2000.33,-172.93 1995.5,-168.1 1995.5,-163.26 1995.5,-163.26 1995.5,-153.6 1995.5,-153.6 1995.5,-148.76 2000.33,-143.93 2005.17,-143.93 2005.17,-143.93 2100.83,-143.93 2100.83,-143.93 2105.67,-143.93 2110.5,-148.76 2110.5,-153.6 2110.5,-153.6 2110.5,-163.26 2110.5,-163.26 2110.5,-168.1 2105.67,-172.93 2100.83,-172.93"/>
<text text-anchor="middle" x="2053" y="-155.93" font-family="Helvetica,sans-Serif" font-size="10.00" fill="#7f1d1d">⑤ Timer</text>
</g>
<!-- wf4&#45;&gt;wf5 -->
<g id="edge35" class="edge">
<title>wf4&#45;&gt;wf5</title>
<path fill="none" stroke="#64748b" stroke-width="1.5" d="M2053,-275.01C2053,-252.53 2053,-207.93 2053,-181.19"/>
<polygon fill="#64748b" stroke="#64748b" stroke-width="1.5" points="2055.8,-181.18 2053,-173.18 2050.2,-181.18 2055.8,-181.18"/>
</g>
<!-- wf6 -->
<g id="node33" class="node">
<title>wf6</title>
<path fill="#93c5fd" stroke="#2563eb" stroke-width="1.5" d="M2100.83,-56.5C2100.83,-56.5 2005.17,-56.5 2005.17,-56.5 2000.33,-56.5 1995.5,-51.67 1995.5,-46.83 1995.5,-46.83 1995.5,-37.17 1995.5,-37.17 1995.5,-32.33 2000.33,-27.5 2005.17,-27.5 2005.17,-27.5 2100.83,-27.5 2100.83,-27.5 2105.67,-27.5 2110.5,-32.33 2110.5,-37.17 2110.5,-37.17 2110.5,-46.83 2110.5,-46.83 2110.5,-51.67 2105.67,-56.5 2100.83,-56.5"/>
<text text-anchor="middle" x="2053" y="-39.5" font-family="Helvetica,sans-Serif" font-size="10.00" fill="#1e3a5f">⑥ Sortie broadcast</text>
</g>
<!-- wf5&#45;&gt;wf6 -->
<g id="edge36" class="edge">
<title>wf5&#45;&gt;wf6</title>
<path fill="none" stroke="#64748b" stroke-width="1.5" d="M2053,-143.85C2053,-124.33 2053,-88.1 2053,-64.8"/>
<polygon fill="#64748b" stroke="#64748b" stroke-width="1.5" points="2055.8,-64.56 2053,-56.56 2050.2,-64.56 2055.8,-64.56"/>
</g>
</g>
</svg>
